<mxfile host="app.diagrams.net" agent="Mozilla/5.0 (Macintosh; Intel Mac OS X 10_15_7) AppleWebKit/605.1.15 (KHTML, like Gecko) Version/17.1 Safari/605.1.15" version="26.1.3">
  <diagram name="Page-1" id="Q1FSbPl76X9kY6Cxu2pk">
    <mxGraphModel dx="2064" dy="2013" grid="1" gridSize="10" guides="1" tooltips="1" connect="1" arrows="1" fold="1" page="1" pageScale="1" pageWidth="827" pageHeight="1169" math="0" shadow="0">
      <root>
        <mxCell id="0" />
        <mxCell id="1" parent="0" />
        <mxCell id="2TdinVV24m6juVP0GPgO-194" value="" style="edgeStyle=entityRelationEdgeStyle;fontSize=12;html=1;endArrow=ERoneToMany;startArrow=ERmandOne;rounded=0;entryX=1;entryY=0.5;entryDx=0;entryDy=0;" parent="1" target="yl0NGpjNBAmBe0pd-2HO-8" edge="1" source="yl0NGpjNBAmBe0pd-2HO-6">
          <mxGeometry width="100" height="100" relative="1" as="geometry">
            <mxPoint x="260" y="-360" as="sourcePoint" />
            <mxPoint x="280" y="-550" as="targetPoint" />
          </mxGeometry>
        </mxCell>
        <mxCell id="yl0NGpjNBAmBe0pd-2HO-3" value="Driver_Rating_History" style="rounded=0;whiteSpace=wrap;html=1;" vertex="1" parent="1">
          <mxGeometry x="-540" y="-200" width="150" height="60" as="geometry" />
        </mxCell>
        <mxCell id="yl0NGpjNBAmBe0pd-2HO-4" value="Drive" style="rounded=0;whiteSpace=wrap;html=1;" vertex="1" parent="1">
          <mxGeometry x="-120" y="-300" width="110" height="70" as="geometry" />
        </mxCell>
        <mxCell id="yl0NGpjNBAmBe0pd-2HO-5" value="Payment" style="rounded=0;whiteSpace=wrap;html=1;" vertex="1" parent="1">
          <mxGeometry x="-320" y="-450" width="120" height="60" as="geometry" />
        </mxCell>
        <mxCell id="yl0NGpjNBAmBe0pd-2HO-6" value="Person" style="rounded=0;whiteSpace=wrap;html=1;" vertex="1" parent="1">
          <mxGeometry x="140" y="-400" width="120" height="60" as="geometry" />
        </mxCell>
        <mxCell id="yl0NGpjNBAmBe0pd-2HO-7" value="Driver" style="rounded=0;whiteSpace=wrap;html=1;" vertex="1" parent="1">
          <mxGeometry x="-140" y="-140" width="120" height="60" as="geometry" />
        </mxCell>
        <mxCell id="yl0NGpjNBAmBe0pd-2HO-8" value="Person_Rating_History" style="rounded=0;whiteSpace=wrap;html=1;" vertex="1" parent="1">
          <mxGeometry x="100" y="-210" width="140" height="60" as="geometry" />
        </mxCell>
        <mxCell id="yl0NGpjNBAmBe0pd-2HO-9" value="" style="edgeStyle=entityRelationEdgeStyle;fontSize=12;html=1;endArrow=ERoneToMany;startArrow=ERmandOne;rounded=0;exitX=0;exitY=0.5;exitDx=0;exitDy=0;entryX=1;entryY=0.5;entryDx=0;entryDy=0;" edge="1" parent="1" source="yl0NGpjNBAmBe0pd-2HO-7" target="yl0NGpjNBAmBe0pd-2HO-3">
          <mxGeometry width="100" height="100" relative="1" as="geometry">
            <mxPoint x="-13" y="20" as="sourcePoint" />
            <mxPoint x="-330" y="-180" as="targetPoint" />
            <Array as="points">
              <mxPoint x="-183" y="410" />
              <mxPoint x="-143" y="440" />
              <mxPoint x="-23" y="265" />
              <mxPoint x="-33" y="235" />
              <mxPoint x="-350" y="-180" />
              <mxPoint x="-243" y="-295" />
            </Array>
          </mxGeometry>
        </mxCell>
        <mxCell id="yl0NGpjNBAmBe0pd-2HO-11" value="" style="edgeStyle=entityRelationEdgeStyle;fontSize=12;html=1;endArrow=ERoneToMany;startArrow=ERmandOne;rounded=0;exitX=1;exitY=0.5;exitDx=0;exitDy=0;" edge="1" parent="1" source="yl0NGpjNBAmBe0pd-2HO-7" target="yl0NGpjNBAmBe0pd-2HO-4">
          <mxGeometry width="100" height="100" relative="1" as="geometry">
            <mxPoint x="-50" y="-220" as="sourcePoint" />
            <mxPoint x="-330" y="-230" as="targetPoint" />
            <Array as="points">
              <mxPoint x="-210" y="365" />
              <mxPoint x="-170" y="395" />
              <mxPoint x="-50" y="220" />
              <mxPoint x="-60" y="190" />
              <mxPoint x="-270" y="-340" />
            </Array>
          </mxGeometry>
        </mxCell>
        <mxCell id="yl0NGpjNBAmBe0pd-2HO-12" value="" style="edgeStyle=entityRelationEdgeStyle;fontSize=12;html=1;endArrow=ERoneToMany;startArrow=ERmandOne;rounded=0;exitX=0;exitY=0.5;exitDx=0;exitDy=0;entryX=1;entryY=0.25;entryDx=0;entryDy=0;" edge="1" parent="1" source="yl0NGpjNBAmBe0pd-2HO-6" target="yl0NGpjNBAmBe0pd-2HO-4">
          <mxGeometry width="100" height="100" relative="1" as="geometry">
            <mxPoint x="-340" y="-180" as="sourcePoint" />
            <mxPoint x="-200" y="-130" as="targetPoint" />
            <Array as="points">
              <mxPoint x="-140" y="245" />
              <mxPoint x="-100" y="275" />
              <mxPoint x="-210" y="-330" />
              <mxPoint x="20" y="100" />
              <mxPoint x="10" y="70" />
              <mxPoint x="-200" y="-460" />
            </Array>
          </mxGeometry>
        </mxCell>
        <mxCell id="yl0NGpjNBAmBe0pd-2HO-13" value="" style="edgeStyle=entityRelationEdgeStyle;fontSize=12;html=1;endArrow=ERmandOne;startArrow=ERmandOne;rounded=0;entryX=0.5;entryY=1;entryDx=0;entryDy=0;exitX=0;exitY=0.5;exitDx=0;exitDy=0;" edge="1" parent="1" source="yl0NGpjNBAmBe0pd-2HO-4" target="yl0NGpjNBAmBe0pd-2HO-5">
          <mxGeometry width="100" height="100" relative="1" as="geometry">
            <mxPoint x="-400" y="-210" as="sourcePoint" />
            <mxPoint x="-250" y="-390" as="targetPoint" />
          </mxGeometry>
        </mxCell>
      </root>
    </mxGraphModel>
  </diagram>
</mxfile>
